<?xml version="1.0" encoding="UTF-8"?>
<svg id="Layer_1" xmlns="http://www.w3.org/2000/svg" version="1.1" viewBox="0 0 189 245.7" width="50mm" height="65mm">
  <g transform="scale(1.7983)">
    <ellipse cx="52.6" cy="67" rx="51.9" ry="66.3" fill="{{fillColor}}" stroke="{{strokeColor}}" stroke-miterlimit="10" stroke-width="1.3"/>
    <ellipse cx="52.6" cy="67" rx="50.1" ry="64" fill="{{fillColor}}" stroke="{{strokeColor}}" stroke-miterlimit="10" stroke-width="1.2"/>
    <path d="M102.6,107.4H2.8c-.9,0-1.7.8-1.7,1.7v10.3c0,.9.8,1.7,1.7,1.7h6.8c.9,0,1.7.8,1.7,1.7v4.6c0,.9.8,1.7,1.7,1.7h4.3c.9,0,1.7.8,1.7,1.7v3.3c0,.9.8,1.7,1.7,1.7h63.8c.9,0,1.7-.8,1.7-1.7v-3.3c0-.9.8-1.7,1.7-1.7h4.3c.9,0,1.7-.8,1.7-1.7v-4.6c0-.9.8-1.7,1.7-1.7h6.8c.9,0,1.7-.8,1.7-1.7v-10.3c0-.9-.8-1.7-1.7-1.7Z" fill="{{fillColor}}" stroke="{{strokeColor}}" stroke-miterlimit="10" stroke-width="1.4"/>
    <text x="52.6" y="117" font-family="Inter, ui-sans-serif, system-ui, sans-serif" font-size="9" font-weight="700" fill="{{textColor}}" text-anchor="middle">{{displayName}}</text>
    <text x="52.6" y="125" font-family="Inter, ui-sans-serif, system-ui, sans-serif" font-size="9" fill="{{mutedTextColor}}" text-anchor="middle">{{nickname}}</text>
    <text x="52.6" y="133" font-family="Inter, ui-sans-serif, system-ui, sans-serif" font-size="8" fill="{{mutedTextColor}}" text-anchor="middle">{{dates}}</text>
    <g transform="translate(90, 10)">{{tags}}</g>
  </g>
</svg>